<?xml version="1.0" encoding="utf-8"?>
<!-- Generator: Adobe Illustrator 21.0.2, SVG Export Plug-In . SVG Version: 6.00 Build 0)  -->
<svg version="1.1" xmlns="http://www.w3.org/2000/svg" xmlns:xlink="http://www.w3.org/1999/xlink" x="0px" y="0px"
	 viewBox="0 0 829.2 750" style="enable-background:new 0 0 829.2 750;" xml:space="preserve">
<style type="text/css">
	.st0{fill:#A03615;}
	.st1{fill:#E66021;}
	.st2{fill:#F8AD1C;}
	.st3{fill:#F6E1D0;}
	.st4{opacity:0.16;fill:#181716;}
	.st5{fill:#F38C6B;}
	.st6{fill:#3F2322;}
	.st7{fill:#643E39;}
</style>
<g id="Background">
</g>
<g id="Objects">
	<path class="st0" d="M819.6,535.8c-3.7-30.9-18.4-63.4-43.6-82.6c-51.5-39.2-130.6-29.6-173.2,18c-24.6,27.6-31.9,64-31.1,100
		c0.9,42.7,8.1,90.3-31.8,118.3c-17.8,12.5-43.1,11.1-63.6,7.8c-22.4-3.6-42-18.4-60.3-30.8C397.4,654,384.1,634,377,613.1
		c-6.2-18.3-5.1-36.2-6.1-54.9c-0.1-2.1-1.3-3.3-2.8-3.8c-0.5-0.4-1.1-0.8-1.8-1c-29-9.4-31.9,44.3-32.4,60.5
		c-0.5,16.9,8.6,33.2,16.1,47.8c8.6,16.8,21.2,31.5,34.6,44.7c24.8,24.3,58.8,45.4,94.3,45.4c38,0,73.8-3.1,105.4-26.6
		c29.6-21.9,37-60.5,34.5-94.9c-0.6-8.4-2.1-16.8-3.6-25.1c-1.9-10.3-1.1-20.4-2.3-30.7c-3-25.4,7.9-49.9,19.6-71.4
		c12.3-22.5,36.1-35.6,61.1-37.7c22.4-2,48.4,12.1,64.7,26.4c13.9,12.1,23.7,34.9,25.8,53.2c0.9,8.1,0.9,16.6,2.4,24.7
		c1.3,7.1-0.9,14.3,1.2,21.2c0.8,2.5,2.9,4,5.4,4.1C819.3,596.7,821.7,553.2,819.6,535.8z"/>
	<path class="st1" d="M809.2,557.7c-3.3-3.7-9.5-0.8-9.5,3.9c-2.7,0.9-4.6,3.9-6.5,7c-8.9,14.5-19.7,27.6-26.2,43.4
		c-12,28.8-17.8,65.3,3.1,91.9c1.5,1.9,5.1,2.3,7,0.9C821.5,671.8,850.8,604.5,809.2,557.7z"/>
	<path class="st2" d="M813.7,563.3c-1.4-1.9-2.9-3.7-4.5-5.6c-0.9-1-2.1-1.5-3.3-1.6c0.2,4.6,0.4,9.2,0.4,13.7
		c0,16.1-2.6,32.6-5.1,48.5c-3.3,21.2-9.4,41.7-17.7,61.4c-3.6,8.5-8.1,16.6-12.6,24.7c1.7,1.3,4.6,1.5,6.2,0.3
		c1.2-0.9,2.5-1.9,3.7-2.9C802.7,659.8,814.9,610.8,813.7,563.3z"/>
	<path class="st2" d="M820.5,574c-2.4-4.5-5.2-8.9-8.7-13.2c1.1,5.1,2.3,10.2,3.3,15.3c4.1,20.7,0.9,43.2-3.9,63.5
		c-4.2,18-10.3,35-19.6,51.1c-0.8,1.4-1.7,2.7-2.6,4c6.2-5.9,11.9-12.5,17-19.5c4.6-10.7,8.6-21.8,11.5-33.6
		C823.5,618.5,823.8,596.3,820.5,574z"/>
	<path class="st2" d="M788.8,635.5c4.3-16.1,8.4-32,13.1-48c2.7-9.3,6.5-18.5,8.9-28c-0.5-0.6-1-1.2-1.5-1.8c-1-1.1-2.2-1.6-3.5-1.6
		c-9.1,27.6-17.1,55.4-24.6,83.4c-5.2,19.2-10.8,38.4-15.5,57.7c1.3,2.3,2.8,4.5,4.5,6.6c0.2,0.3,0.6,0.5,0.9,0.7
		c0.9-4.7,1.8-9.4,2.9-14C778,671.9,784,653.9,788.8,635.5z"/>
	<path class="st2" d="M771.3,704.9c-1.5-25.2-0.4-49.4,4.7-75.3c5.4-27.7,17.5-49.5,32.4-72.5c-3.4-2.5-8.7,0.2-8.7,4.5
		c-2.7,0.9-4.6,3.9-6.5,7c-1.8,2.9-3.7,5.7-5.5,8.5c-8,14.9-13.3,28.5-17.3,45.1c-5.2,21.6-8.9,45.1-8.3,68.1
		c2.1,4.8,4.7,9.4,8.1,13.7C770.4,704.3,770.9,704.6,771.3,704.9z"/>
	<g>
		<path class="st2" d="M487.9,443.2c-0.2-40-3.4-79.8-3.4-119.9c0-37.7,1.7-75.4,1.7-113c0-19.5-0.1-39,0.1-58.5
			c0.2-15.9,2.5-32.8-0.3-48.5c-2.2-12.6-3.3-23.7-11.8-33.6C465,58.9,451.3,39.7,430,24.1C399.8,1.9,375.2,6.8,336.8,3.2
			C247.4-3,195.7,68.7,186.5,93.7c-9.9,26.9-25.1,52.4-38.6,77.5c-24.9,46.3-54.2,90-78.5,136.6c-42.5,81.7-82,183-53.8,274.9
			c11.9,38.9,32.3,81.6,66,105.8c40.5,29.1,88.8,47,137.9,54.7c48.8,7.7,90.8,5,136-15.8c18.9-8.7,38.7-18.5,53.9-33
			c15.8-15.1,29.8-32,42.3-50c9.3-13.4,16.1-29,20.9-44.5c4.9-15.8,5.4-32.4,9.6-48.3C491.5,516.3,488.1,479.4,487.9,443.2z"/>
		<path class="st3" d="M391.9,80.8c-12.4-12.2-28.6-10.3-44-13.3c-22.1-4.2-46.7-1.8-68.5-7.9c-0.8-0.6-1.8-1.1-3.1-1.1
			c-0.6,0-1.1,0-1.7,0c-3.4-0.1-5.1,2.4-5.2,5c-1.4,0.7-2.4,2.2-2.4,3.8c-0.8,23.1-11.6,48.5-19.1,70.3c-9,26.1-20.4,51.2-30.4,77
			c-9.2,23.7-16.2,48-24.5,72c-8.5,24.5-17.2,48.9-21.9,74.5c-6.4,34.6-4.7,79.9,19,108.4c12,14.4,28.5,24.5,46,31.1
			c19.1,7.1,47.1,13.5,67.3,8c38.8-10.5,65.8-47.6,73.2-86c9.1-46.9,12.4-95.5,14.6-143.3c2.4-52,1.9-104.1,5.4-156.1
			C397.5,109.8,402.6,91.3,391.9,80.8z"/>
	</g>
	<path class="st4" d="M486.3,147.8c-17.8-18.5-36-32.8-39.9-18.6c-6.9,25.2,29.6,80.5,39.7,95.1c0-4.7,0.1-9.3,0.1-14
		c0-19.5-0.1-39,0.1-58.5C486.3,150.5,486.3,149.1,486.3,147.8z"/>
	<path class="st4" d="M165.4,160.7c62-53.3,55-76.7,38-76.1c-3.4,0.1-9.1,2.8-16.1,6.9c-0.3,0.8-0.6,1.5-0.9,2.2
		c-9.9,26.9-25.1,52.4-38.6,77.5c-1.2,2.2-2.4,4.4-3.6,6.6C151.1,172.7,158.1,167,165.4,160.7z"/>
</g>
<g id="Designed_by_Freepik">
</g>
</svg>
