<svg id="Layer_1" data-name="Layer 1" xmlns="http://www.w3.org/2000/svg" viewBox="0 0 216 160"><defs><style>.cls-1{fill:#6a7e0d;}.cls-2{fill:#bab115;}</style></defs><title>coco</title><path class="cls-1" d="M39.6,6.52a27.52,27.52,0,0,0,3.45,10.54c2.08,4,3.91,8.17,6,12.2,4.29,8.29,11.05,15.44,18,21.65,7.11,6.38,13,14,19.84,20.64,3.14,3.07,6.46,5.84,8.29,10,.81,1.81,2.38,2.32,3.57.59C99.67,80.74,100,79,101,77.7a2.12,2.12,0,0,0,.7-2c-.28-1-2-1.72-2.81-2.18S93.05,71.46,94.28,70c3-3.46.33-5.12-3.16-6.5a9.75,9.75,0,0,0-3.22-.94c-1.44,0-.86-1.18-.65-2.14.48-2.16,2.08-4.14,1.19-6.39-.45-1.14-2.07-2-3.18-2.26a11.85,11.85,0,0,0-2.93-.37c-1.5,0-1.15.28-1.15-1.15,0-2.89,2.63-9-1.33-10.32a6.57,6.57,0,0,0-4,.47c-1.93,1-2.31.38-1.85-1.74a26.15,26.15,0,0,1,1.37-5c1.77-4-1.92-4.45-5.22-4.31a22.48,22.48,0,0,1-4.7-.24c-1.87-.3-1.17-1.06-.73-2.51.59-1.94,1.68-4.55.55-6.48-.89-1.52-4.26-2.42-5.84-2.95-2.2-.73-4.63-.77-6.78-1.63"/><path class="cls-1" d="M206.37,96.89c-2.74-.48-3,2.18-3.33,4.05-.22,1.14-.56,2.26-.85,3.38-.4,1.55-.51,1.65-2.24,1.32-1.2-.23-3.17-.83-4.41-.49-2.25.62-2.23,4.12-2.24,5.92,0,.28.22,4.16-.08,4.08-2.13-.56-4.35-.71-6.47-1.31s-4.76-2.16-6.43.08a33.63,33.63,0,0,0-4.39,8.92c-.4,1.15-3.86-1.71-4.35-2-1.73-1-3.72-1.51-5.49-2.46-2.82-1.51-4.13.13-6.06,2.16-1.27,1.34-2.39,2.81-3.69,4.14-.52.54-1,1.13-1.53,1.67-.94,1-1.2-.31-1.69-1a75.82,75.82,0,0,0-8.36-9.37c-2-1.89-4.58.64-6.25,1.68s-3,2-4.55,2.95a10.64,10.64,0,0,1-2.26,1.1c-.86.3-1.38-2.11-1.55-2.5-1.22-2.76-2.18-6-4.14-8.31a2.3,2.3,0,0,0-2.21-.4c-2.25.43-4.53,1.78-6.71,2.53-3.19,1.1-2-2.73-2.22-4.51a36.19,36.19,0,0,0-.8-5.74c-.75-2.73-4.09-2.22-6.23-2.27a47,47,0,0,1-6.49-.42c-1.79-.3-.73-2.89-.61-4,.23-2.27,1.15-7.12-1.39-8.62-1.92-1.14-3.93-1.14-6.08-1.38-2.8-.32-5.58-.87-8.37-1-1.15-.07-1.11,1.64,0,1.76l.33,0c.23,7.64,5.93,14.91,10.36,20.73a50.66,50.66,0,0,0,18.93,15.59,57.28,57.28,0,0,0,11.56,4.29c1.74.38,3.48.12,5.21.49,2.36.5,4.76.61,7.12,1.23,8.72,2.3,17.7,2.34,26.62,3,8.58.59,18,.52,25.49-4.31a46.43,46.43,0,0,0,8.95-7.25c3-3.2,5-7.32,7.41-10.9,2.05-3,2.79-6.15,3.94-9.5C211.69,97.63,208.1,97.19,206.37,96.89Z"/><path class="cls-2" d="M215.77,105.31c-.08-2.54-1.1-6.93-3.91-7.86-3.55-1.17-4.81,1.5-6.89,3.88-3.35,3.84-5.68,8.68-9.41,12.22-7.15,6.79-18.47,10.74-27.93,12.75a66.7,66.7,0,0,1-15.28.95,60.14,60.14,0,0,1-16.34-2.4c-9.91-3.12-20.12-6.8-28.11-13.63a81.92,81.92,0,0,1-9.43-9.38c-3.35-4-5.6-9-8.2-13.53-2-3.42-4.08-8.21-4.51-12.19-.1-.92-1.53-1-1.47,0,0,0,0,0,0,.07a1,1,0,0,0-.58-.18h-.33a1.1,1.1,0,0,0-.42.08,23.1,23.1,0,0,0-5.05,1.24c-1.83.64-3.79,1.81-5.65,2.19s-3.66,1.71-5.18,2.6c-2.25,1.31-4.49,2.65-6.69,4.06-6.4,4.11-13.27,9.64-15.62,17.16-2.43,7.8,1.6,17.06,6.16,23.24,5.12,6.94,13.51,11.91,20.8,16.26a134.68,134.68,0,0,0,24.74,11.8c9.14,3.14,19,4.36,28.64,4.77,9.84.42,19.29.82,29.1-.51,4.44-.6,8.82-1.49,13.24-2.11s9.12-2.73,13.33-4.36C196.52,146.31,211,134.28,215,117.3,216,113.16,215.9,109.5,215.77,105.31Z"/><path class="cls-2" d="M106.74,125.82c-.6-4.12-2.3-7.9-3.67-11.79s-1.9-7.92-2.72-11.89c-.88-4.26-1.44-8.55-2.26-12.82a72.77,72.77,0,0,0-4.14-12.52c-2.64-6.73-6.79-12.85-10-19.31A92.31,92.31,0,0,0,77.33,47c-2.23-3.27-4.21-6.7-6.45-10a140.12,140.12,0,0,0-16-18.84C49.57,12.8,44,7,37.05,3.85s-14.6-2.13-21.68-.71c-3.08.62-5.9,2.94-8,5.09a20,20,0,0,0-3,3.64,1,1,0,0,0-.77.9A9.69,9.69,0,0,1,3.35,14c0,.14-.06.28-.09.42a26.58,26.58,0,0,0-.83,3.92c-.17,2.3-.54,4.59-.79,6.87a82.47,82.47,0,0,0,.22,15.24c.79,9.66,2.09,20,5.23,29.17A212.05,212.05,0,0,0,17.64,94.88a73.17,73.17,0,0,0,7.22,11.51c2.77,3.71,5.34,7.78,8.47,11.2,5.82,6.37,13.25,10.85,20.48,15.34,3.89,2.41,7.63,4.87,11.73,7a99,99,0,0,0,11.84,4.62,36.31,36.31,0,0,0,9.49,1.65c4.19.31,8.12.28,11.95-1.56C104.82,141.7,107.62,131.86,106.74,125.82Z"/><path class="cls-1" d="M62.55,77.61c-4.31-9.19-9.25-18.06-13.49-27.29-4.12-9-7.13-18.35-11.94-27C33.41,16.64,30.62,4.6,20.32,6.87c-3.37.74-5.62,4.26-5.9,7.64-.39,4.68-.69,9.35-.68,14.06a99.29,99.29,0,0,0,7.5,37.68q.55,1.87,1.11,3.76c5.12,17.11,14.75,33.66,32.78,39.08,6.39,1.92,14.32,2.35,15.11-6.08C71.05,94.29,66.14,85.28,62.55,77.61Z"/></svg>