<svg id="Layer_1" data-name="Layer 1" xmlns="http://www.w3.org/2000/svg" viewBox="0 0 34 62"><defs><style>.cls-1{fill:#6a7e0d;}.cls-2{fill:#bab115;}.cls-3{fill:#9ba520;}</style></defs><title>coco</title><path class="cls-1" d="M30.35,8.34C28.52,3.63,25.23-1.18,19.63.41c-6.19,1.76-2.61,9-1.71,13.18,1.67,7.74,2.11,15.9-.16,23.51a24.41,24.41,0,0,1-6.6,10.61C8.51,50.33,4.24,53.21.42,53.48A.76.76,0,0,0,.42,55H.48a1.12,1.12,0,0,0,.21.29l.33.33a.94.94,0,0,0,.67.29c2.15,1.41,3.33,4,5.49,5.46,2,1.37,5.3,1,7.44.32,2.63-.81,4.54-3,6.41-4.88,2.31-2.3,5-4.26,6.45-7.24C33.66,37.1,35.45,21.48,30.35,8.34Z"/><path class="cls-2" d="M19.63.41c-4.17,1.19-3.9,4.86-3,8.41a4.25,4.25,0,0,0,2.29.08c1.43-.49,1.25-1,1.73-1.79,1.38,1.25,3,3.31,4.53.71a5.36,5.36,0,0,0,.44-1.28c.07-.25,1.32.22,1.67.11a5,5,0,0,0,1.85-1C27.17,2,24.15-.88,19.63.41Z"/><path class="cls-3" d="M28.29,36.07A3.4,3.4,0,0,0,26.75,36a6.61,6.61,0,0,1-2.08-.27,7.26,7.26,0,0,1-2.84-1.91c-.55-.46-1.49.13-1.05.81a6,6,0,0,0,3,2.58c1.37.48,3.64,1.07,4.75-.16A.6.6,0,0,0,28.29,36.07Z"/><path class="cls-3" d="M27.32,33.31a2.47,2.47,0,0,0-1,0,3.34,3.34,0,0,1-1-.18c-.56-.17-1.08-.55-1.65-.68a.44.44,0,0,0-.54.31c-.13.91.91,1.42,1.6,1.78s2.48.87,3-.21A.71.71,0,0,0,27.32,33.31Z"/><path class="cls-3" d="M31.47,33.14c-1.39-3.29-6.73-4.12-9.65-2.75-.42.2-.15.73.21.78,1.53.19,3.12.19,4.62.52s2.49,1.64,3.76,2.5C31.13,34.68,31.73,33.77,31.47,33.14Z"/></svg>