<svg id="Layer_1" data-name="Layer 1" xmlns="http://www.w3.org/2000/svg" viewBox="0 0 45 72"><defs><style>.cls-1{fill:#6a7e0d;}.cls-2{fill:#bab115;}.cls-3{fill:#9ba520;}</style></defs><title>coco</title><path class="cls-1" d="M39.07,59.77a42.15,42.15,0,0,1-9.68-11.89c-2.47-4.8-4.93-9-6.19-14.31a122.82,122.82,0,0,1-2.6-13.92,111.12,111.12,0,0,1-.43-13.94c0-2.59-.59-4.14-3.05-5.09C11.46-1.55,4.38,1.58.56,5.75A1,1,0,0,0,.58,7l0,0C0,10.91.47,14.84.86,18.78a117.47,117.47,0,0,0,2.4,14.49c2,8.62,6.18,16.13,11.09,23.36a62,62,0,0,0,8,9.15c2.69,2.63,5.62,4.95,9.27,6,4.73,1.38,13.65.09,13.1-6.55C44.53,63.06,40.48,61,39.07,59.77Z"/><path class="cls-2" d="M39.81,60.36a6.89,6.89,0,0,0-2.73,4.05c-1-.68-2.18-1.51-3.46-.67a3.69,3.69,0,0,0-2,3.15,3.72,3.72,0,0,0-3.13.17,3.29,3.29,0,0,0-2,2.22,17.67,17.67,0,0,0,5.14,2.52c4.73,1.38,13.65.09,13.1-6.55C44.56,63.37,41.55,61.62,39.81,60.36Z"/><path class="cls-3" d="M18.43,34.52c-2-.8-5.08,0-6.93.87a6.08,6.08,0,0,0-3.15,4.7c0,.63,1,1,1.26.34a7.53,7.53,0,0,1,2.8-3.49c1.57-1,4.06-.79,5.84-1A.71.71,0,0,0,18.43,34.52Z"/><path class="cls-3" d="M15.92,38.41a2.43,2.43,0,0,0-2.26-.19,2.37,2.37,0,0,0-1.6,1.46c-.25.57.44,1.25.93.72a1.9,1.9,0,0,1,1.08-.69,7.78,7.78,0,0,0,1.72-.28A.65.65,0,0,0,15.92,38.41Z"/><path class="cls-3" d="M16.31,40.3A3.61,3.61,0,0,0,15,41c-.23.15-.47.29-.7.43s-.58.48-.87.44a.55.55,0,0,0-.42,1c.83.51,1.62.07,2.42-.29S17,41.84,17,40.87A.59.59,0,0,0,16.31,40.3Z"/><path class="cls-3" d="M20.22,40.91c-1,1.43-1.57,2.27-3.36,2.87s-3.27,1.19-5.25.47c-.59-.21-.87.64-.4,1,2.32,1.6,4.23,1,6.8.24a4.84,4.84,0,0,0,3.7-4.14C21.78,40.44,20.64,40.34,20.22,40.91Z"/></svg>