<svg id="Layer_1" data-name="Layer 1" xmlns="http://www.w3.org/2000/svg" viewBox="0 0 38 77"><defs><style>.cls-1{fill:#6a7e0d;}.cls-2{fill:#bab115;}.cls-3{fill:#9ba520;}</style></defs><title>coco</title><path class="cls-1" d="M37,6.57C33.93,1.35,26.43-.59,20.85.32a1,1,0,0,0-.73,1s0,0,0,.05c-3,2.67-5,6.06-7.13,9.39A117.13,117.13,0,0,0,5.88,23.56C2.06,31.54.71,40,.07,48.76A62.1,62.1,0,0,0,.65,60.9C1.13,64.63,2,68.27,4.19,71.37c2.85,4,10.64,8.54,14.34,3,1.22-1.83-.71-5.93-1-7.8a42.14,42.14,0,0,1-.21-15.33c1-5.29,1.71-10.11,4-15.06a122.69,122.69,0,0,1,6.6-12.53,111,111,0,0,1,8.31-11.2C37.88,10.44,38.35,8.85,37,6.57Z"/><path class="cls-2" d="M17.85,67.93a5.14,5.14,0,0,0-.76-.06c-2,0-2.22.49-3.13,1.49-.72-1-1.14-1.76-3-1.11a3.31,3.31,0,0,0-2.08,2.33c-1.54-.91-3.54-1.85-5-.89a4.3,4.3,0,0,0-.52.4c.25.44.52.87.81,1.28,2.85,4,10.64,8.54,14.34,3C19.5,72.9,18.46,70,17.85,67.93Z"/><path class="cls-3" d="M20.7,29.81c-1.18-2.4-3.95-3.4-6.44-3.63-1.92-.18-5.25.3-6.08,2.33a.53.53,0,0,0,.65.65,11.72,11.72,0,0,1,5.42-1.11c2.4.15,3.53,1.6,5.37,2.82C20.34,31.33,21,30.46,20.7,29.81Z"/><path class="cls-3" d="M15.61,31c-.69-1.87-3.34-1.35-4.62-.5a.54.54,0,0,0,.42,1,6.26,6.26,0,0,1,1.77-.15c.57,0,1,.45,1.56.54S15.82,31.58,15.61,31Z"/><path class="cls-3" d="M14.28,33.15a3.24,3.24,0,0,0-1.54-.06,5.81,5.81,0,0,1-1.67-.2.55.55,0,0,0-.42,1c.83.55,3.3,1.54,3.88.21A.71.71,0,0,0,14.28,33.15Z"/><path class="cls-3" d="M17.7,34.84a16.25,16.25,0,0,1-4.09,1.4,6.66,6.66,0,0,1-5.44-2.17c-.43-.43-1,.11-.8.62,1.87,4,8.49,5,11.27,1.39C19.09,35.49,18.36,34.59,17.7,34.84Z"/></svg>