<svg id="Layer_1" data-name="Layer 1" xmlns="http://www.w3.org/2000/svg" viewBox="0 0 200 95"><defs><style>.cls-1{fill:#3f2322;}.cls-2{fill:#643e39;}.cls-3{fill:#f6e1d0;}.cls-4{fill:#6a7e0d;}.cls-5{fill:#9ba520;}.cls-6{fill:#f38c6b;}</style></defs><title>coco</title><path class="cls-1" d="M104.8,29.05a5.36,5.36,0,0,0-5.24.81A4.26,4.26,0,0,0,98,32.38a5.41,5.41,0,0,0,.69,5c2.68,3,6.86,3.18,8.92-.56A5.6,5.6,0,0,0,104.8,29.05Z"/><path class="cls-2" d="M101.33,32.95a.84.84,0,0,0-.08-.15,1.63,1.63,0,0,0-.9-1.12,1.58,1.58,0,0,0-1.37,0l-.06,0a1.06,1.06,0,0,0-.14.1,1.1,1.1,0,0,0-.16.12,2.07,2.07,0,0,0-.52,1.23,1.62,1.62,0,0,0,1.11,1.5l.08,0a1.76,1.76,0,0,0,.38.1h0a1.59,1.59,0,0,0,.54,0,1.33,1.33,0,0,0,.24-.09,1.57,1.57,0,0,0,.26-.13l.09-.07A1.38,1.38,0,0,0,101.33,32.95Z"/><path class="cls-3" d="M100.58,32.45a1,1,0,0,0,0,2A1,1,0,0,0,100.58,32.45Z"/><path class="cls-3" d="M103.39,32.19a.73.73,0,0,0,0,1.45A.73.73,0,0,0,103.39,32.19Z"/><path class="cls-3" d="M102.4,34.44a.58.58,0,0,0,0,1.16A.58.58,0,0,0,102.4,34.44Z"/><path class="cls-4" d="M141.91,4.56l.32,0c-.28-.33-.53-.71-.77-1-.76-1-2-3.17-3.65-2.73a17.67,17.67,0,0,0-6.49,3.77c-2.56,2-4.29.07-7,.83-2,.56-2.44,3.33-2.58,6A28.88,28.88,0,0,1,141.91,4.56Z"/><path class="cls-4" d="M186.7,32c.22.29.43.59.64.89.33-.58.76-1.06,1.13-1.7a20.7,20.7,0,0,0,1.43-4.21c.56-1.86,1.11-4.16.23-6-.72-1.49-3.37-1.48-4.7-1.6a50.85,50.85,0,0,0-9.32.32,9.49,9.49,0,0,1-1.58,0c1.21.89,2.42,1.8,3.6,2.75C181.65,25.26,184,28.4,186.7,32Z"/><path class="cls-4" d="M192,48.94c3.46-2,9.09-4.74,7.08-9.49A10.13,10.13,0,0,0,194.5,35a12.88,12.88,0,0,0-3.05-1.17c-1-.26-2.78-.49-4-.88A27.93,27.93,0,0,1,192,44,14.76,14.76,0,0,1,192,48.94Z"/><path class="cls-4" d="M166.57,14.44c2.16,1.26,4.25,2.6,6.28,4-.05-1,0-2.31-.07-2.57-.15-1.48,0-4.73-.9-6-3.71-5.15-12.31,4.62-14.56-1.92-.71-2.07-1.6-4.53-3.2-6.07-1.34-1.28-2.86-.37-4.21.33-1.16.6-2.29,1.22-3.47,1.79a6.31,6.31,0,0,0-1.72.93,67.72,67.72,0,0,1,10.8,3.71A81.73,81.73,0,0,1,166.57,14.44Z"/><path class="cls-5" d="M144.63,5l.09-.06a21.49,21.49,0,0,0-2.48-.38A1.61,1.61,0,0,0,144.63,5Z"/><path class="cls-5" d="M187.4,32.94l-.06-.09,0,.06Z"/><path class="cls-5" d="M191.36,51.9a27.21,27.21,0,0,0,.64-3h0C190.6,49.76,190.63,50.78,191.36,51.9Z"/><path class="cls-5" d="M175.89,47a47.92,47.92,0,0,0-7.54-12.83c-5.84-7.53-13.8-16-23.85-16.54-2.57-.14-5.14-.13-7.71-.14a53.6,53.6,0,0,0-6.36-.14c-2.71.33-5.51,1-8-.44a.86.86,0,0,1-1.08-1,31.83,31.83,0,0,0,.32-4.47q-1.2,1-2.32,2.08c-6.65,6.53-10.59,14.94-16,22.39-3.17,4.38-6.54,8.21-11.36,10.8-4.46,2.39-10,3.79-14.89,4.86C71.72,52.73,66.45,54.43,61,55.49c-2.64.51-5.25,1.27-7.86,1.92-3.13.78-6.37.9-9.52,1.6-5.84,1.29-11.81,2.13-17.72,3.12-2.79.47-5.91.38-8.29-1.31-.66-1.46-2.32-2.63-3.43-3.52C11.94,55.51,9,54.07,6.06,54.45-.28,55.26.95,65.38.39,69.66-.45,76.17.84,85.2,6.33,89.44c3.22,2.49,8.35,2.91,12.21,3.55,4.48.75,8.92,1.13,13.42,1.68,2.28.28,4.6-.23,6.92.1a40.41,40.41,0,0,0,5.54.23c4.61,0,9.2-.33,13.81-.33,9.62,0,19.15-.89,28.74-1.44a268.12,268.12,0,0,0,29.94-3.36c10.17-1.75,20.36-3,30.4-5.56C156.69,82,166,79.27,174.21,74a54.57,54.57,0,0,0,6.33-4.65,24.39,24.39,0,0,1-2-7.46C178,56.88,177.7,51.81,175.89,47Z"/><path class="cls-5" d="M173.05,19.59c.51,0,1,.05,1.47.09-.55-.41-1.11-.81-1.67-1.2C172.89,19.09,172.94,19.58,173.05,19.59Z"/><path class="cls-5" d="M190.23,55.69c.39-1.26.79-2.52,1.13-3.79-.73-1.12-.76-2.14.64-3h0a14.76,14.76,0,0,0,0-5,27.93,27.93,0,0,0-4.6-11l-.1,0,0-.06c-.21-.3-.42-.6-.64-.89-2.71-3.55-5-6.69-8.58-9.53-1.18-.95-2.38-1.86-3.6-2.75-.48,0-1-.08-1.47-.09-.11,0-.17-.49-.2-1.12-2-1.42-4.12-2.77-6.28-4a81.73,81.73,0,0,0-11.05-5.76A67.72,67.72,0,0,0,144.72,5l-.09.06a1.61,1.61,0,0,1-2.4-.43l-.32,0a28.88,28.88,0,0,0-20.22,6.87,31.83,31.83,0,0,1-.32,4.47.86.86,0,0,0,1.08,1c2.47,1.42,5.27.77,8,.44a53.6,53.6,0,0,1,6.36.14c2.57,0,5.14,0,7.71.14,10.05.54,18,9,23.85,16.54A47.92,47.92,0,0,1,175.89,47c1.81,4.8,2.14,9.86,2.67,14.93a24.39,24.39,0,0,0,2,7.46C184.88,65.66,188.55,61.1,190.23,55.69Z"/><path class="cls-4" d="M18.34,73a14.19,14.19,0,0,0-2.57-4.62c-.79-1-2.18-1.72-3.36-.92a4.14,4.14,0,0,0-1.19,3.29s0,0,0,.07,0,.32,0,.47v0a4.57,4.57,0,0,0,.25,1.11,11.27,11.27,0,0,0,2.23,3.84c.83.9,2.14,1.7,3.38,1C18.68,76.43,18.76,74.49,18.34,73Zm-2.28,2.43c-.45,0-.91-.7-1.16-1a9,9,0,0,1-1.23-2c0-.71-.26-1.49-.26-2.15,0-.05,0-.13,0-.21s0-.08.07-.11a.79.79,0,0,0,.26-.7,7.72,7.72,0,0,1,1.5,2.22A14.56,14.56,0,0,1,16.4,74C16.43,74.12,16.56,75.35,16.06,75.39Z"/><path class="cls-4" d="M8.57,69.7A14.19,14.19,0,0,0,6,65.08c-.79-1-2.18-1.72-3.36-.92a4.14,4.14,0,0,0-1.19,3.29s0,0,0,.07,0,.32,0,.47v0a4.51,4.51,0,0,0,.25,1.11A11.23,11.23,0,0,0,4,73c.83.9,2.14,1.7,3.38,1C8.9,73.17,9,71.23,8.57,69.7ZM6.29,72.13c-.45,0-.91-.7-1.16-1a9,9,0,0,1-1.24-2c0-.71-.25-1.49-.26-2.15,0-.05,0-.13,0-.21s0-.08.07-.11A.79.79,0,0,0,4,66a7.67,7.67,0,0,1,1.5,2.22,14.46,14.46,0,0,1,1.15,2.55C6.66,70.86,6.79,72.09,6.29,72.13Z"/><path class="cls-3" d="M93.46,62.91a1.14,1.14,0,0,0-1.59,0c-1,.89-1.14,2.78-1.37,4-.59,3.1-3.58,5.73-5.82,7.75-4.83,4.35-11.94,5.57-18.08,4a1,1,0,0,0-.51-.17h-.33a.93.93,0,0,0-.48.11L65,78.52a1,1,0,0,0-1.23.94c-.16,2.51,5.59,4.47,7.26,5.06a21.63,21.63,0,0,0,13.56.66,14.13,14.13,0,0,0,9.29-8.58C95.28,73.08,96.34,66,93.46,62.91Z"/><path class="cls-1" d="M141.55,31a5.36,5.36,0,0,0-5.24.81,4.27,4.27,0,0,0-1.61,2.52,5.4,5.4,0,0,0,.7,5c2.68,3,6.86,3.18,8.92-.56A5.6,5.6,0,0,0,141.55,31Z"/><path class="cls-2" d="M138.15,35.23a.84.84,0,0,0-.08-.15,1.63,1.63,0,0,0-.9-1.12,1.58,1.58,0,0,0-1.37,0l-.06,0a1.07,1.07,0,0,0-.14.1,1.11,1.11,0,0,0-.16.12,2.07,2.07,0,0,0-.52,1.23,1.62,1.62,0,0,0,1.11,1.5l.08,0a1.76,1.76,0,0,0,.38.1h0a1.59,1.59,0,0,0,.54,0,1.33,1.33,0,0,0,.24-.09,1.57,1.57,0,0,0,.26-.13l.09-.07A1.38,1.38,0,0,0,138.15,35.23Z"/><path class="cls-3" d="M137.4,34.73a1,1,0,0,0,0,2A1,1,0,0,0,137.4,34.73Z"/><path class="cls-3" d="M140.21,34.47a.73.73,0,0,0,0,1.45A.73.73,0,0,0,140.21,34.47Z"/><path class="cls-3" d="M139.22,36.72a.58.58,0,0,0,0,1.16A.58.58,0,0,0,139.22,36.72Z"/><path class="cls-6" d="M146.26,55.63a10,10,0,0,0-7.07-1.14c-.64.11-3.55,1.27-1.51.52a12.92,12.92,0,0,0-3.91,2.26c-3.7,3-5.21,9.1-2.34,13.12a10.49,10.49,0,0,0,12.67,3.79c.55-.19,1.1-.41,1.66-.66a8.07,8.07,0,0,0,3.25-3.1q-1.28,1.34.45-.73a13.19,13.19,0,0,0,1-2.22A9.61,9.61,0,0,0,146.26,55.63Z"/></svg>