<?xml version="1.0" encoding="utf-8"?>
<!-- Generator: Adobe Illustrator 21.0.2, SVG Export Plug-In . SVG Version: 6.00 Build 0)  -->
<svg version="1.1" xmlns="http://www.w3.org/2000/svg" xmlns:xlink="http://www.w3.org/1999/xlink" x="0px" y="0px"
	 viewBox="0 0 942 937.8" style="enable-background:new 0 0 942 937.8;" xml:space="preserve">
<style type="text/css">
	.st0{fill:#A03615;}
	.st1{fill:#E66021;}
	.st2{fill:#F8AD1C;}
	.st3{fill:#F6E1D0;}
	.st4{opacity:0.16;fill:#181716;}
	.st5{fill:#F38C6B;}
	.st6{fill:#3F2322;}
	.st7{fill:#643E39;}
</style>
<g id="Background">
</g>
<g id="Objects">
	<path class="st1" d="M941.9,454.5c-0.8-35.9-21.8-70-47.9-93.4c-12.9-11.6-26.8-18.1-41.5-21.4c23.8-36,28.2-86,7.1-123.5
		c-12.8-22.8-36.4-45.2-59.2-57.5c-22-11.9-57.5-21.6-82.5-15.3c5.3-1.3-3.3-32.6-4.4-36.2c-4.3-14.3-9.7-27.2-17.7-39.8
		c-15-23.8-40.6-41.7-66.6-51.6c-31.2-11.9-63.4-11.1-95.8-5.6c-15.7,2.7-31.6,6.7-46.2,13c-13.5,5.9-24.7,15.5-37.9,21.7
		c-19.1-21-43.2-41.8-72.7-44.3c-33.2-2.8-68.9,5.2-99.3,18.5c-32.9,14.3-55.5,36.3-75.5,65.7c-16.4,24.1-25.4,64.3-21.7,93.2
		c0.8,6.2,1.5,12,1.9,18.1c0.5,8.5-6.3,5.1-12.7,5.7c-12.5,1.2-26.6,3.3-38,8.4c-28.7,12.9-53.9,22.5-72,50.1
		c-19.2,29.2-25.7,59.2-25.7,93.7c0,14.9,7.4,31.3,12.1,45.2c3.8,11.2,9,20.1,17,28.2C32.2,461.8,2.4,503.2,0.1,550.6
		c-1.3,26.7,8,53,23.1,74.6c12.6,18,38.2,38.1,61,40.1c5.8,0.5,11.3,0.4,17,0.1c-3,0.2-5.3,9.5-5.9,11c-4.3,11.8-5.3,22.5-3.4,35.1
		c4.6,30.4,12.8,61.4,30.3,87.2c14.6,21.6,40.1,31.9,63.9,39.3c13.8,4.3,27.7,4.5,42,3.3c12.4-1.1,22.6-7.1,33.6-11.4
		c2.6,8.2,3.2,17.5,6.6,25.4c5.9,13.5,10.6,25.2,19.8,36.9c17.5,22.3,39.1,36,66.6,42.2c25.7,5.8,54.9,4.5,79.1-6.6
		c11.7-5.4,22.6-11.7,32.1-20.5c4.6-4.3,8.4-7.6,12.1-12.7c2-2.3,3.7-4.8,5.2-7.4c4.2-6.6,0.6-2.4,4.3,0.8
		c42,36.6,103.3,59.1,158.5,42.2c23.2-7.1,49.9-26.4,63.9-46.3c8.3-11.7,12.4-25.1,16.1-38.9c2.8-10.6,1-21.3,2.1-31.7
		c28.4,4,54.7,1.9,82.2-9.5c22.5-9.3,44.8-28.2,59.2-47.7c16.9-22.8,23.2-51.5,23.7-79.4c0.6-30.9-11.8-54.2-26.1-80.3
		C914.9,568,943.2,510.1,941.9,454.5z"/>
	<g>
		<path class="st2" d="M159.7,354.4c-33.2,6.3-64.2,36.3-70.2,69.7c-5.3,29.5,9.3,68.4,39.6,77c3.4,1,6.5-3.7,3.6-6.2
			c-8.4-7.2-15.5-10.4-22.5-19.9c-11.5-15.6-13.2-35.4-9.8-53.8c5.9-31.8,38.2-45,62-60.4C165.8,358.5,163.5,353.7,159.7,354.4z"/>
		<path class="st2" d="M293.1,179.1c-31.4-13.7-66.1,6.2-86.3,30.1c-22.9,27-18.8,68.6,8.8,90.1c3,2.3,7.9-0.6,5.6-4.3
			c-5-8.2-11-13.5-14.7-23c-6.9-18.2-5.4-35.8,5.3-52c9-13.5,23-24.5,38.2-29.9c14.4-5.2,26.2-3.6,40.9-3
			C295,187.1,297.1,180.8,293.1,179.1z"/>
		<path class="st2" d="M508,132.2c-6-30.3-43.6-49.3-72.4-44.7c-28.5,4.5-63.3,29.4-63,61.2c0,4.5,7.1,5.7,8.1,1.1
			c5.3-25.9,27.6-45.1,52.7-51.1c30.7-7.3,51.1,14.5,66.3,37.1C502.6,140.1,509.1,137.3,508,132.2z"/>
		<path class="st2" d="M702,153.5c-11.4-12.1-27.3-17.1-43.3-19.1c-18.9-2.4-30.2,6.5-45.3,14.7c-3.7,2-1.1,7.4,2.8,6.6
			c10.5-2.2,18.5-9.6,30.1-11.1c15.7-1.9,32,3.8,44.2,13.5c25,19.9,20.1,47.7,11.4,74.2c-1.2,3.7,4,6.8,6.6,3.9
			C730.6,211.3,723.1,176.1,702,153.5z"/>
		<path class="st2" d="M810.1,357.2c-3.8-16-15.6-25.7-30.1-32.2c-6.2-2.8-14.2-9.3-21.5-8.5c-6.5,0.8-12.3,2.5-18.5,3.9
			c-1.7,0.4-3,2.5-2.4,4.2l0.4,1.1c1.1,2.9,4.7,2.9,5.8,0c-0.6,1.7,18.3,1.8,21.9,3.4c14.5,6.3,28.2,15.5,33.1,31.2
			c4,13.1,2.7,27.5-4.4,39.1c-7.1,11.5-18,16.7-27.5,25.5c-3.3,3.1,0.1,9.8,4.6,7.9C804,419.4,818.1,391,810.1,357.2z"/>
		<path class="st2" d="M779.4,510.6c-3.9-1.1-6,4.3-2.7,6.4c10.9,6.8,20.7,12.8,25.9,25.4c3.8,9.4,5.2,21.1,4.8,31.1
			c-1.3,32.3-32.8,41.3-58.3,47.7c-4.2,1-4.6,8,0,8.8c32,5.4,62.9-19.9,69.3-50.3C824.7,549.7,808.8,518.9,779.4,510.6z"/>
		<path class="st2" d="M214.7,667.5c-23.1,6.1-43.9,7-61.9-11.5c-18.3-18.7-4-51.6,11-67.2c1.9-2,0-6.1-2.9-4.9
			c-26.5,10.5-33,48.2-22.4,71.9c12.8,28.3,57.3,37.3,80,18.3C221.9,671.6,218.4,666.6,214.7,667.5z"/>
		<path class="st2" d="M365.6,754.3c-7.9,8.2-13.5,16.6-23.7,22.3c-15.1,8.5-35.2,6.6-51.2,2.9c-24-5.6-34.9-36.9-31.2-59.2
			c0.4-2.4-2.7-5.1-4.6-2.7c-17.2,22,4.2,61.1,26.1,70.8c30.8,13.7,80.9,6.3,91.4-30.2C373.6,754.3,368.5,751.3,365.6,754.3z"/>
		<path class="st2" d="M536.8,772.4c-4.2,11-5.9,24.4-13.8,33.7c-7.5,8.8-21.7,12.3-32.7,13.5c-24.5,2.7-36.9-19.7-46.5-38.2
			c-3.3-6.5-12.9-0.8-9.7,5.7c13.1,26.2,29.3,47.3,61.3,44.2c32-3.1,49.1-26.9,50.4-57.6C546,768.1,538.5,767.8,536.8,772.4z"/>
		<path class="st2" d="M732.1,704.3c-0.8-4.2-7.3-4-8.2,0c-4.8,21-0.1,41.6-17.1,57.9c-20.6,19.6-65.2,13-79-11.5
			c-2-3.6-7.5-1.1-6.6,2.8c7.4,31.3,53.8,36,78.5,26.8C730.1,768.9,737.3,733.1,732.1,704.3z"/>
	</g>
	<g>
		<path class="st0" d="M764.1,261.1c-24.9,2-49.5,15.2-68.7,30.6c-12.1,9.7-22.7,20.7-32.3,32.9c-7.2,9.2-18.7,18.8-21.7,30.3
			c-0.9,3.6,1.6,5.8,4.4,6.1c2.2,6.5,6.1,13.1,8.4,19.2c2.6,6.6,4.6,20.3,11.5,24.2c9.7,5.5,22.1,3.4,32.9,5.5
			c12.8,2.5,27.2,2.4,40.2,2.5c26.1,0.1,56.1,7.4,80.5-5.3c25.7-13.5,34.5-33.2,39.2-61.2C867.4,292.5,811.2,257.4,764.1,261.1z"/>
		<path class="st0" d="M317.3,204c-9.1-22.9-24-46.5-44.7-60.5c-39.1-26.5-105.3-23.7-123.9,27.2c-9.7,26.7-11.9,48.1,3.9,72.5
			c14.9,23.2,44.6,31.5,67.4,44.4c11.3,6.4,23.8,13.5,36.1,17.7c10.4,3.5,20.1,11.5,31.3,11.5c8,0,16.5-10.9,22-15.4
			c5.1-4.1,11.7-7.9,16.8-12.5c2.6,1.1,5.9,0.4,6.9-3.1c3.1-11.6-2.2-25.5-3.9-37.1C326.9,233.2,323.1,218.4,317.3,204z"/>
	</g>
	<g>
		<path class="st5" d="M755.6,320.5c-18.7,3.2-36.3,10.8-52.9,19.7c-11,5.9-29.3,13.6-36.4,24.1c-1.6,2.4-0.5,4.8,1.4,6.1
			c9,20.8,52.7,14.4,69.4,13.9c21.6-0.6,57-6.4,63.1-31.6C805.7,330.3,772.5,317.6,755.6,320.5z"/>
		<path class="st5" d="M250.8,199.2c-13.3-10.9-48.4-16.2-54.7,6c-7.1,25,20.8,47.4,39.3,58.7c14.3,8.7,49.1,35.9,67.2,22.2
			c2.3-0.2,4.5-1.8,4.2-4.6c-1-12.6-13.1-28.4-19.8-38.9C277,226.6,265.4,211.2,250.8,199.2z"/>
	</g>
	<path class="st2" d="M685.7,329.7c-17.9-53.4-47.1-111.1-101.1-136.2c-24.8-11.6-56.4-11.6-83.2-12.5c-18.9-0.7-38-1.4-55.4,4.2
		c-17.4,3.7-34.6,9.8-50.7,16.9c-43.3,19.3-82.2,57.2-113.7,91.9c-60.6,66.7-108.3,159.3-90.1,251.2c9.2,46.4,33.5,79.7,71.1,107.5
		c37.6,27.8,85.1,48.1,130.3,59.4c23.2,5.8,47.3,8.2,71.1,10.4c26.8,2.5,52.1,5,79,3.4c44.9-2.7,86.4-10.9,121.9-40.5
		c45.1-37.6,60.9-101.1,61.2-157.3C726.6,461.8,706.6,392.1,685.7,329.7z"/>
	<path class="st1" d="M535.3,486.7c11.6,0,21.9-1.8,24.3-14.1c2.9-15-2.5-34.7-4.6-49.6c-6.7-47.8-10-94.7-12.2-142.8
		c-1.4-32.2,0.4-64.6,0.3-96.9c-14.1-1.5-28.5-1.7-41.7-2.2c-1.4-0.1-2.8-0.1-4.2-0.1c-7.1,16.6-17,32.6-25.1,48.3
		c-10.4,20.3-18.6,41.6-28.4,62.2c-19.6,41.4-44.2,80.6-61.3,123.1c-5.9,14.7-11.5,28-4.4,43.1c5.7,12.2,26.2,15.6,37.6,18.3
		C453.9,485.1,496,486.7,535.3,486.7z"/>
	<path class="st3" d="M528.5,605c-37.6,3.1-39.1-27.2-52.3-49.7c-5.1-8.7-19.3-3-26.7-6.8c-3.2-1.6-6.3-1.1-9,1.2
		c-1.2,1-2.4,2.1-3.6,3.3c-0.7,0.4-1.4,0.8-2,1.4l-1.8,1.7c-1.8,0.5-3.5,1.6-4.8,3.7c-4.6,7-10.7,11.9-17.6,15.4
		c-0.6,0.3-1.2,0.6-1.7,0.8c-10.3,4.7-22.2,6.5-34,7.3c-1.6-0.2-3.2-0.4-4.8-0.7c-0.3-0.1-0.6,0-0.9,0c-4-5.3-14.3-3.1-14,4.7
		c1.3,35.8,40.7,56.9,71.1,64c42.4,9.9,78.2-1,108-32.4C538.8,614.1,536,604.4,528.5,605z"/>
	<path class="st0" d="M443.2,537.1c-17.2,20.4-31.4,36.9-60,37.9c-24.5,0.9-51.9-5.1-60.6-31.3c-1-3.1-5.6-3.4-6.6,0
		c-7.9,28.4,34.5,42.9,55.9,43.7c35.4,1.3,64.6-12.4,78.1-46.4C451.5,537.3,445.8,534.1,443.2,537.1z"/>
	<path class="st0" d="M595.3,585.4c-9.9,5.4-18.8,13.5-29.8,16.8c-15.4,4.6-30.9,0.7-46-2.9c-22.7-5.4-32-37.5-39.3-56.6
		c-1.6-4.2-8.4-3.9-8.3,1.1c0.9,26.3,18.9,58.5,44.2,67.4c26,9.1,72.6,9.6,85-21.2C602.6,586.4,598.1,583.8,595.3,585.4z"/>
	<path class="st0" d="M536,608.3c-12.4,12.9-22.3,22.6-38.4,31.1c-22.2,11.7-45.4,13.5-69.6,8.3c-19.1-4.1-34.6-12.5-49.9-24.6
		c-13.8-10.9-15.7-29.3-20.5-44.8c-1.5-4.8-9.2-4.1-9,1.2c1.3,42.9,35.2,72.4,76.2,80.1c45,8.5,93.8-4.6,120.2-44.4
		C548.4,609.8,540.4,603.8,536,608.3z"/>
	<path class="st6" d="M599.7,384c-7.1-2.2-14.6,0.4-20,5.1c-9.3,4.8-13.9,19.2-9.6,29.5c7.7,18.4,32.1,20.2,44.1,5.4
		C625.5,410,615.7,388.8,599.7,384z"/>
	<path class="st6" d="M366.8,341.7c-7.1-2.2-14.6,0.4-20,5.1c-9.3,4.8-13.9,19.2-9.6,29.5c7.7,18.4,32.1,20.2,44.1,5.4
		C392.6,367.7,382.8,346.6,366.8,341.7z"/>
	<g>
		<path class="st7" d="M595.2,398.2c-0.1-0.3-0.3-0.5-0.4-0.8c-0.6-2.4-2.1-4.7-4.7-5.9c-2.4-1.1-5.1-1.1-7.2,0
			c-0.1,0-0.2,0.1-0.3,0.1c-0.3,0.1-0.5,0.4-0.7,0.5c-0.3,0.2-0.6,0.4-0.8,0.6c-1.7,1.7-2.5,4.2-2.7,6.5c-0.4,3.5,2.6,6.5,5.8,7.9
			c0.1,0.1,0.3,0.1,0.4,0.2c0.7,0.2,1.3,0.5,2,0.5c0,0,0,0,0.1,0c1,0.1,1.9,0.1,2.8-0.2c0.5-0.1,0.9-0.3,1.3-0.5
			c0.5-0.2,0.9-0.4,1.4-0.7c0.2-0.1,0.3-0.2,0.5-0.4C594.8,404.4,596.1,401.6,595.2,398.2z"/>
		<path class="st3" d="M591.3,395.6c-6.9,0-6.9,10.7,0,10.7C598.2,406.3,598.2,395.6,591.3,395.6z"/>
		<path class="st3" d="M606,394.2c-4.9,0-4.9,7.6,0,7.6C610.9,401.8,610.9,394.2,606,394.2z"/>
		<path class="st3" d="M600.9,406c-3.9,0-3.9,6.1,0,6.1C604.8,412.1,604.8,406,600.9,406z"/>
	</g>
	<g>
		<path class="st7" d="M361.1,356.4c-0.1-0.3-0.3-0.5-0.4-0.8c-0.6-2.4-2.1-4.7-4.7-5.9c-2.4-1.1-5.1-1.1-7.2,0
			c-0.1,0-0.2,0.1-0.3,0.1c-0.3,0.1-0.5,0.4-0.7,0.5c-0.3,0.2-0.6,0.4-0.8,0.6c-1.7,1.7-2.5,4.2-2.7,6.5c-0.4,3.5,2.6,6.5,5.8,7.9
			c0.1,0.1,0.3,0.1,0.4,0.2c0.7,0.2,1.3,0.5,2,0.5c0,0,0,0,0.1,0c1,0.1,1.9,0.1,2.8-0.2c0.5-0.1,0.9-0.3,1.3-0.5
			c0.5-0.2,0.9-0.4,1.4-0.7c0.2-0.1,0.3-0.2,0.5-0.4C360.7,362.6,362.1,359.9,361.1,356.4z"/>
		<path class="st3" d="M357.2,353.8c-6.9,0-6.9,10.7,0,10.7C364.1,364.5,364.1,353.8,357.2,353.8z"/>
		<path class="st3" d="M371.9,352.4c-4.9,0-4.9,7.6,0,7.6C376.9,360,376.9,352.4,371.9,352.4z"/>
		<path class="st3" d="M366.8,364.2c-3.9,0-3.9,6.1,0,6.1S370.7,364.2,366.8,364.2z"/>
	</g>
	<path class="st6" d="M563.4,457.7c-18.6-7.1-38.2-10.4-57.5-15.3c-33.3-8.5-70.4-14.4-104.7-11.6c-5.5,0.5-10.7,1.3-15.4,2.6
		c-5.3,0.7-10.4,2.1-14.7,5.6c-8.7,7-10.1,16.1-8,25.6c0,0.4,0,0.8,0,1.2c0,0.9,0.4,1.7,0.9,2.4c4.1,13.4,14.4,27.1,20.8,36.2
		c16.8,23.7,36.6,52.8,66.4,61c11.8,3.2,27-2.7,38.2-5.5c15.5-3.9,30-11.8,42.3-22c11.4-9.6,21.6-19.8,30.6-31.8
		c7.2-9.7,17.3-21.7,17.3-34.5C579.4,462.9,569.5,460.1,563.4,457.7z"/>
	<path class="st7" d="M542.6,467.1c-20.3-9.9-42-19.4-64.5-22.4c-27.2-3.6-61.2-10.2-85.8,4.7c-12,7.3-12.3,25.3,0,32.4
		c20.7,12,48.5,8.4,71.9,10.8c18.6,1.9,36.4,9.7,52.9,18.1C546.1,525.5,571.7,481.4,542.6,467.1z"/>
	<path class="st3" d="M551.4,467.3c-17-16-54.7-24.1-77.5-25c-17.2-0.7-33.6-2.2-50.8-0.1c-10,1.2-19.6-2.9-28.5,3.5
		c-4.1,3-4.1,8.2,0,11.2c10.8,7.8,39.5,0.4,52.4,2c26.3,3.3,69,3.7,89.7,23C546.5,491.1,561.2,476.5,551.4,467.3z"/>
	<path class="st3" d="M548.5,500.1c-0.5-0.9-1.2-1.6-1.8-2.4c-3.3-3.8-9.9-4.6-14.1-1.9c-0.1,0-0.2,0-0.4,0.1
		c-2.6,0.6-4.8,2.3-6.8,3.9c-4,3.3-4,11.2,0,14.4c6,4.8,12.2,5.2,19,2C550.1,513.5,551.4,505.3,548.5,500.1z"/>
	<path class="st5" d="M666.3,502.5c-6.2-2.3-12.7-2.7-19-1.9c-35.2-4.2-51.7,42.1-35.7,69.8c21.8,37.7,88.8,23.4,86.7-22.5
		C697.4,528.5,684.5,509.3,666.3,502.5z"/>
	<path class="st5" d="M290.4,454.4c-9.6-6.3-21.3-7.9-32.2-5.8c-8.1-1-16.9,0.7-24,4.4c-14.5,7.3-21.4,25.3-23,40.3
		c-3.7,34.2,35.3,55.9,65.2,46.5c16.2-5.1,29.9-17.9,32.4-35.4C311.3,485.2,307.8,465.8,290.4,454.4z"/>
</g>
<g id="Designed_by_Freepik">
</g>
</svg>
