<?xml version="1.0" encoding="utf-8"?>
<!-- Generator: Adobe Illustrator 21.0.2, SVG Export Plug-In . SVG Version: 6.00 Build 0)  -->
<svg version="1.1" xmlns="http://www.w3.org/2000/svg" xmlns:xlink="http://www.w3.org/1999/xlink" x="0px" y="0px"
	 viewBox="0 0 308.1 241.1" style="enable-background:new 0 0 308.1 241.1;" xml:space="preserve">
<style type="text/css">
	.st0{fill:#A03615;}
	.st1{fill:#E66021;}
	.st2{fill:#F8AD1C;}
	.st3{fill:#F6E1D0;}
	.st4{opacity:0.16;fill:#181716;}
	.st5{fill:#F38C6B;}
	.st6{fill:#3F2322;}
	.st7{fill:#643E39;}
</style>
<g id="Background">
</g>
<g id="Objects">
	<path class="st2" d="M305.9,40.1c-2.6-13.5-2.7-25.7-13.7-35.4c-10.2-9-28-3.2-38.6,1.5c-16.3,7.2-35.1,14-50,23.8
		C187,41,164.5,51,148.6,62.8c-17.9,13.2-30.8,24.9-48.8,37.7c-30.6,21.6-58.4,47.9-84.4,74.7C6,184.8-3.5,194.5,1.2,208.8
		c3.4,10.1,15.4,24.4,25.1,28.9c30,14.1,54.6-18.9,75-36.6c34.7-30.1,73.2-54.7,109.4-82.9c16.4-12.8,33.6-24.2,51.3-35.2
		c7.9-4.9,16-8.7,24.5-12.6c-1,0.4,16.2-6.6,15-7.2c5,2.5,9-3.9,4.9-7.3C308,51.1,306.9,44.9,305.9,40.1z"/>
	<path class="st1" d="M27.6,186.3c-2.7,2.4-4.3,5.8-6.7,8.5c-2.9,3.2-6.4,5-10.6,6c-1,0.2-2,1.2-2.2,2.2C8,203.5,7.9,204,8,204.5
		c0,0.1,0,0.2,0.1,0.2c0.4,1.4,1.6,2.3,3.1,2.3c9.4,0.2,20.4-9.4,21.5-18.7C32.9,185.6,29.3,184.7,27.6,186.3z"/>
	<path class="st1" d="M53.2,204c-0.8-2.4-3.7-3.3-5.6-1.5c-1.7,1.7-2.3,3.7-3.1,5.9c-1,2.7-2.3,4.4-4.7,6c-3.3,2.3-8.2,4.6-11,5.3
		c-1.6,0.4-2.1,2.5-1,3.6c4.5,4.5,11.6,1,16.3-1.5C49.9,218.7,55.4,211,53.2,204z"/>
	<path class="st5" d="M86.6,152.6c-6.6-4.3-15-4.4-22.4-2.9c-9.1,1.9-16.1,9.5-18.9,18c-0.7,1.2-1.2,2.5-1.6,3.7
		c-1.8,6.4-0.4,13.2,3.1,18.6c1.3,2.6,3,5,5.1,6.9c5.2,4.6,10.3,5.9,16.9,6.8c4.9,0.6,9.4-1.3,13.1-4.2c3.8-1.6,7.2-3.7,10-6.8
		c4.6-5,6.5-10.5,7.3-17.2C100.6,166.2,94.1,157.5,86.6,152.6z"/>
</g>
<g id="Designed_by_Freepik">
</g>
</svg>
