<?xml version="1.0" encoding="utf-8"?>
<!-- Generator: Adobe Illustrator 21.0.2, SVG Export Plug-In . SVG Version: 6.00 Build 0)  -->
<svg version="1.1" xmlns="http://www.w3.org/2000/svg" xmlns:xlink="http://www.w3.org/1999/xlink" x="0px" y="0px"
	 viewBox="0 0 154.1 488" style="enable-background:new 0 0 154.1 488;" xml:space="preserve">
<style type="text/css">
	.st0{fill:#A03615;}
	.st1{fill:#E66021;}
	.st2{fill:#F8AD1C;}
	.st3{fill:#F6E1D0;}
	.st4{opacity:0.16;fill:#181716;}
	.st5{fill:#F38C6B;}
	.st6{fill:#3F2322;}
	.st7{fill:#643E39;}
</style>
<g id="Background">
</g>
<g id="Objects">
	<g>
		<path class="st1" d="M89.9,7.9c-9.9-6.1-44.3-16-44.3,4c0,0.6,0.2,1.1,0.3,1.7c-7.2,19.2-12.1,38.8-15.8,59
			C28.1,84.2,22.7,96.3,20,108c-3.4,14.4-6.6,28.9-9.3,43.5C0.9,202.8-1.4,256.3,0.7,308.4c2.1,49.9,10.5,98.5,28.4,145.2
			c4.5,11.7,7.3,28.6,22.2,29.9c10.1,0.9,19.9,3.5,30,4.3c11.5,0.9,23.9-4.7,35.3-3.6c13,1.2,11.8-13,11.1-21.7
			c-0.8-9.7-6-21.5-8.9-30.9c-3.9-12.8-5.1-26-8.5-38.8c-13.5-51.2-12.1-110.5,0.9-161.7c6.2-24.3,10.8-48.9,18.8-72.7
			c7-20.6,21-42.9,23.6-64.4C158.6,53.1,120.1,26.6,89.9,7.9z"/>
		<path class="st2" d="M58.3,447.7c-2.5-0.9-4.9,2.3-3.5,4.5c1.6,2.4,4.5,4.5,5.3,7.2c0.6,1.9,3,8.4,0.2,9.7c-3.3,1.6-3.2,7,0,8.7
			c7.2,3.6,10.9-6.8,11-12.1C71.6,457,65.9,450.5,58.3,447.7z"/>
		<path class="st2" d="M105.2,456.1c-0.5-2.8-2.1-6.3-4.1-8.4c-1.3-1.3-2.6-2.6-4-3.8c-1.1-0.9-2.8-0.8-3.7-1.7
			c-2-1.7-5.9-0.8-5.7,2.4c0.2,3.5,3.2,6,5.3,8.7c2.1,2.6,2.3,6.1,2.4,9.3c0,2.6-1.7,4.3-3.1,6.3c-0.2,0.3-0.5,0.5-0.8,0.8
			c-1,1.4-0.9,3.6,0,5c0.1,0.1,0.2,0.3,0.3,0.4c0.7,1.1,1.7,1.6,2.8,1.9c0.2,0.1,0.3,0.2,0.4,0.2c2.3,0.8,4.7-0.5,6-2.4
			C105.2,468.5,106.5,463.9,105.2,456.1z"/>
	</g>
</g>
<g id="Designed_by_Freepik">
</g>
</svg>
