<?xml version="1.0" encoding="utf-8"?>
<!-- Generator: Adobe Illustrator 21.0.2, SVG Export Plug-In . SVG Version: 6.00 Build 0)  -->
<svg version="1.1" id="Layer_1" xmlns="http://www.w3.org/2000/svg" xmlns:xlink="http://www.w3.org/1999/xlink" x="0px" y="0px"
	 viewBox="0 0 297 257.9" style="enable-background:new 0 0 297 257.9;" xml:space="preserve">
<style type="text/css">
	.st0{fill:#F8AD1C;}
	.st1{fill:#E66021;}
	.st2{fill:#F38C6B;}
</style>
<g id="Background">
</g>
<g id="Objects">
	<path class="st0" d="M295.3,29.4c-4.2-9.9-17.2-23.2-27.2-27c-31-11.8-53.1,22.9-72.2,42c-32.4,32.5-69,59.8-103,90.6
		c-15.5,13.9-31.8,26.6-48.6,38.8c-7.5,5.5-15.4,9.9-23.5,14.3c0.9-0.5-15.7,7.7-14.4,8.3c-5.2-2.1-8.7,4.6-4.3,7.7
		c-1.3,5,0.2,11,1.6,15.8c3.6,13.3,4.6,25.4,16.3,34.3c10.8,8.2,28.1,1.2,38.4-4.3c15.7-8.4,33.9-16.5,48.1-27.5
		c15.8-12.2,37.4-23.8,52.4-36.6c16.9-14.4,28.9-27.1,45.9-41.1c28.9-23.7,54.7-52,78.8-80.6C292.2,53.7,300.8,43.3,295.3,29.4z"/>
	<path class="st1" d="M266.3,8.8c-6-3-14.4,2-18.1,6.7c-2.8,3.5-5.8,10.2-2.2,14c0.8,0.9,2.3,0.7,3.1-0.1c2.4-2.7,3.4-7.2,6.5-9.4
		c2.1-1.4,3.9-2.5,6.3-3.2c1.8-0.5,3.2-0.8,4.7-1.9C268.8,13.4,268.7,10.1,266.3,8.8z"/>
	<path class="st1" d="M285.3,29.3c-4.4-2.9-13.1,0.8-16.1,4.5c-3.5,4.3-5.9,9.8-4.4,15.4c0.8,3.2,4.9,2.7,6.4,0.4
		c2.1-3.2,2.7-8.3,6.4-10.1c2.9-1.5,6.5-1.8,8.8-4.3C288.2,33.1,287.3,30.5,285.3,29.3z"/>
	<path class="st2" d="M260.4,61.2c-1.9-15.2-13.4-26.9-29-27c-13-0.1-23.8,10.5-26.7,22.7c-3.3,14,4.9,29,19.2,32.4
		c1.2,0.4,2.4,0.4,3.6,0.5c2.5,0.9,5,1.3,7.7,1c7.2-0.9,13.6-3.6,18.3-9.3C258,76,261.2,68.5,260.4,61.2z"/>
</g>
<g id="Designed_by_Freepik">
</g>
</svg>
