<?xml version="1.0" encoding="utf-8"?>
<!-- Generator: Adobe Illustrator 21.0.2, SVG Export Plug-In . SVG Version: 6.00 Build 0)  -->
<svg version="1.1" xmlns="http://www.w3.org/2000/svg" xmlns:xlink="http://www.w3.org/1999/xlink" x="0px" y="0px"
	 viewBox="0 0 266 451.2" style="enable-background:new 0 0 266 451.2;" xml:space="preserve">
<style type="text/css">
	.st0{fill:#A03615;}
	.st1{fill:#E66021;}
	.st2{fill:#F8AD1C;}
	.st3{fill:#F6E1D0;}
	.st4{opacity:0.16;fill:#181716;}
	.st5{fill:#F38C6B;}
	.st6{fill:#3F2322;}
	.st7{fill:#643E39;}
</style>
<g id="Background">
</g>
<g id="Objects">
	<g>
		<path class="st1" d="M260.2,399.8c-4.7-8.6-14.2-17.2-20.7-24.6c-8.8-10.1-15.3-21.6-23.6-32c-33.2-41.2-56.2-95.9-65.2-147.9
			c-4.3-24.7-10.1-49.1-12.5-74.1c-2.1-21.6,1.7-47.7-4.8-68.5C121.1,13.5,75.2,5,40,0.3C28.5-1.3-7,3.8,1.2,22c0.3,0.6,0.6,1,1,1.4
			C3.4,43.9,7,63.8,11.9,83.7c2.8,11.5,2.8,24.7,5.1,36.5c2.8,14.6,5.8,29.1,9.2,43.5c12,50.9,31.8,100.6,55,147.3
			c22.3,44.8,49.8,85.6,85.2,121c8.9,8.8,18.3,23.1,32.5,18.2c9.6-3.3,19.6-4.9,29.2-8.3c10.9-3.9,19.9-14.1,30.7-17.7
			C271.4,420,264.4,407.5,260.2,399.8z"/>
		<path class="st2" d="M208.3,416.2c-5-3.6-24.1-7.7-23.4,3.1c0.2,2.6,3.5,4.5,5.5,2.3c1.2-1.3,5-0.4,6.6-0.3c2.1,0.1,4.1,1,5.8,2.1
			c1.7,1.1,2.9,3.2,3.6,5c0.9,2.4,0.8,3.1-0.1,5.4c-1.2,2.8,2.3,6.3,5.1,5.1C221.6,434.8,214.6,420.8,208.3,416.2z"/>
		<path class="st2" d="M244.5,401.4c-3.1-4-8.9-6.3-13.7-7.1c-5.3-0.9-8.9,1-13.4,3.5c-1.3,0.7-2.1,2.5-1.6,3.9c0,0,0,0,0,0.1
			c0.5,1.7,1.9,2.5,3.4,2.5c0,0,0,0,0,0c2.6,0.3,4.7-1.3,7.3-1.6c3.4-0.3,7,1.5,9.5,3.6c2,1.6,3.3,4.3,3.6,6.8
			c0.4,3-2.1,5.2-0.8,8.4c0.8,1.9,2.6,3.4,4.8,2.7c4.1-1.2,5.7-5.8,5.9-9.8C249.8,409.5,247.5,405.1,244.5,401.4z"/>
	</g>
</g>
<g id="Designed_by_Freepik">
</g>
</svg>
